<?xml version="1.0" encoding="UTF-8"?>
<!DOCTYPE svg PUBLIC "-//W3C//DTD SVG 1.1//EN" "http://www.w3.org/Graphics/SVG/1.1/DTD/svg11.dtd">
<!-- Creator: CorelDRAW X7 -->
<svg xmlns="http://www.w3.org/2000/svg" xml:space="preserve" width="80mm" height="80mm" version="1.1" style="shape-rendering:geometricPrecision; text-rendering:geometricPrecision; image-rendering:optimizeQuality; fill-rule:evenodd; clip-rule:evenodd"
viewBox="0 0 8000 8000"
 xmlns:xlink="http://www.w3.org/1999/xlink">
 <defs>
  <style type="text/css">
   <![CDATA[
    .fil0 {fill:#FEFEFE}
   ]]>
  </style>
 </defs>
 <g id="Warstwa_x0020_1">
  <metadata id="CorelCorpID_0Corel-Layer"/>
  <path class="fil0" d="M3269 3270c-597,26 -2456,-72 -2768,89 -203,105 -379,306 -385,624 -15,825 831,745 1221,745 630,0 1308,-24 1932,4 25,616 4,1276 4,1897 0,390 -96,1240 709,1256 823,17 746,-834 746,-1221 0,-632 -22,-1305 3,-1932 625,-28 1303,-4 1933,-4 386,0 1202,82 1220,-708 18,-809 -809,-746 -1185,-746 -642,0 -1332,24 -1968,-4 -23,-581 70,-2459 -90,-2767 -271,-521 -987,-498 -1259,-48 -153,254 -109,548 -109,882 0,633 22,1305 -4,1933z"/>
 </g>
</svg>
