<?xml version="1.0" encoding="UTF-8"?>
<!DOCTYPE svg PUBLIC "-//W3C//DTD SVG 1.1//EN" "http://www.w3.org/Graphics/SVG/1.1/DTD/svg11.dtd">
<!-- Creator: CorelDRAW X7 -->
<svg xmlns="http://www.w3.org/2000/svg" xml:space="preserve" width="80mm" height="80mm" version="1.1" style="shape-rendering:geometricPrecision; text-rendering:geometricPrecision; image-rendering:optimizeQuality; fill-rule:evenodd; clip-rule:evenodd"
viewBox="0 0 8000 8000"
 xmlns:xlink="http://www.w3.org/1999/xlink">
 <defs>
  <style type="text/css">
   <![CDATA[
    .fil0 {fill:#FEFEFE}
   ]]>
  </style>
 </defs>
 <g id="Warstwa_x0020_1">
  <metadata id="CorelCorpID_0Corel-Layer"/>
  <path class="fil0" d="M50 687c0,170 2,259 89,411 82,142 430,466 558,594 117,118 2271,2260 2303,2308 -31,47 -2181,2185 -2299,2303 -99,100 -494,470 -560,594 -87,164 -91,224 -91,381l0 35c0,87 37,187 67,247 76,150 166,244 317,320 80,40 167,63 256,70l114 0c103,-8 205,-38 294,-89 142,-82 466,-430 594,-558 118,-117 2260,-2271 2308,-2303 45,30 145,141 191,187l2495 2495c127,127 296,268 506,268l53 0c118,0 192,-6 315,-67 149,-74 246,-169 320,-317 62,-124 69,-188 70,-297l0 -77c0,-160 -84,-292 -169,-403 -62,-80 -2240,-2243 -2590,-2594 -47,-47 -161,-149 -191,-195 32,-49 2464,-2469 2682,-2686 126,-127 268,-297 268,-506l0 -70c-1,-109 -7,-180 -67,-298 -60,-120 -111,-181 -216,-260 -102,-77 -228,-120 -357,-130l-112 0c-104,8 -206,38 -296,89 -88,51 -141,104 -212,175l-1918 1919c-54,54 -732,741 -772,767 -49,-32 -2469,-2464 -2686,-2682 -63,-63 -132,-135 -211,-177 -164,-87 -224,-91 -381,-91l-35 0c-88,0 -186,36 -247,67 -44,22 -65,32 -102,60 -153,115 -288,308 -288,510z"/>
 </g>
</svg>
